# xmcd CD database file
# Copyright (C) 1993-1998 Ti Kan
#
# Track frame offsets:
#  150
#  18588
#  40180
#  49823
#  77005
#  87488
#  103093
#  126830
#  141875
#  165998
#  184920
#  199118
#
# Disc length: 2972 seconds
#
# Revision: 1
# Processed by: cddbd v1.4b41PL1 Copyright (c) Steve Scherf et al.
# Submitted via: CDWizzard Release:4.32
#
DISCID=a00b9a0c
DTITLE=Johnnie Johnson and The Kentucky Headhunters - That'll Work
DYEAR=1900
DGENRE=
TTITLE0=That'll Work
TTITLE1=Sunday Blues
TTITLE2=Johnnie's Breakdown
TTITLE3=I'm Not Runnin'
TTITLE4=Bummed About Love
TTITLE5=Stumblin'
TTITLE6=Back To Memphis
TTITLE7=The Feel
TTITLE8=I Kinow you Can
TTITLE9=She's Got To Have It
TTITLE10=Derby Day Special
TTITLE11=Tell Me Baby
EXTD=
EXTT0=
EXTT1=
EXTT2=
EXTT3=
EXTT4=
EXTT5=
EXTT6=
EXTT7=
EXTT8=
EXTT9=
EXTT10=
EXTT11=
PLAYORDER=
